<svg xmlns="http://www.w3.org/2000/svg" xmlns:xlink="http://www.w3.org/1999/xlink" width="300" zoomAndPan="magnify" viewBox="0 0 224.87999 225" height="300" preserveAspectRatio="xMidYMid meet" version="1.0"><defs><clipPath id="8cf2f6d77b"><path d="M 0 0.0585938 L 224.761719 0.0585938 L 224.761719 224.9375 L 0 224.9375 Z M 0 0.0585938 " clip-rule="nonzero"/></clipPath><clipPath id="d323016117"><path d="M 22.488281 22.546875 L 202.390625 22.546875 L 202.390625 202.453125 L 22.488281 202.453125 Z M 22.488281 22.546875 " clip-rule="nonzero"/></clipPath></defs><g clip-path="url(#8cf2f6d77b)"><path fill="#008037" d="M 112.441406 0.0585938 C 50.339844 0.0585938 0 50.402344 0 112.5 C 0 174.597656 50.339844 224.941406 112.441406 224.941406 C 174.539062 224.941406 224.878906 174.597656 224.878906 112.5 C 224.878906 50.402344 174.539062 0.0585938 112.441406 0.0585938 " fill-opacity="1" fill-rule="nonzero"/></g><g clip-path="url(#d323016117)"><path fill="#ffffff" d="M 112.441406 202.453125 C 110.96875 202.453125 109.496094 202.414062 108.027344 202.34375 C 106.554688 202.269531 105.089844 202.164062 103.625 202.019531 C 102.15625 201.875 100.699219 201.695312 99.242188 201.476562 C 97.785156 201.261719 96.335938 201.011719 94.890625 200.722656 C 93.449219 200.4375 92.011719 200.113281 90.582031 199.757812 C 89.15625 199.398438 87.738281 199.007812 86.328125 198.578125 C 84.917969 198.152344 83.523438 197.691406 82.136719 197.195312 C 80.75 196.699219 79.375 196.167969 78.015625 195.605469 C 76.65625 195.042969 75.3125 194.445312 73.980469 193.816406 C 72.648438 193.1875 71.335938 192.523438 70.035156 191.832031 C 68.738281 191.136719 67.457031 190.410156 66.195312 189.65625 C 64.933594 188.898438 63.6875 188.109375 62.464844 187.292969 C 61.242188 186.472656 60.039062 185.628906 58.855469 184.75 C 57.671875 183.875 56.511719 182.96875 55.375 182.035156 C 54.238281 181.101562 53.121094 180.136719 52.03125 179.148438 C 50.941406 178.160156 49.875 177.148438 48.835938 176.105469 C 47.792969 175.066406 46.777344 174 45.789062 172.90625 C 44.800781 171.816406 43.839844 170.703125 42.90625 169.566406 C 41.972656 168.425781 41.066406 167.265625 40.191406 166.085938 C 39.3125 164.902344 38.464844 163.699219 37.648438 162.476562 C 36.828125 161.25 36.042969 160.007812 35.285156 158.746094 C 34.527344 157.480469 33.804688 156.203125 33.109375 154.902344 C 32.414062 153.605469 31.753906 152.289062 31.125 150.960938 C 30.496094 149.628906 29.898438 148.28125 29.335938 146.921875 C 28.773438 145.5625 28.242188 144.191406 27.746094 142.804688 C 27.25 141.417969 26.789062 140.019531 26.359375 138.613281 C 25.933594 137.203125 25.542969 135.785156 25.183594 134.355469 C 24.824219 132.929688 24.503906 131.492188 24.214844 130.046875 C 23.929688 128.605469 23.675781 127.15625 23.460938 125.699219 C 23.246094 124.242188 23.066406 122.78125 22.921875 121.316406 C 22.777344 119.851562 22.667969 118.382812 22.597656 116.914062 C 22.523438 115.445312 22.488281 113.972656 22.488281 112.5 C 22.488281 111.027344 22.523438 109.554688 22.597656 108.085938 C 22.667969 106.617188 22.777344 105.148438 22.921875 103.683594 C 23.066406 102.21875 23.246094 100.757812 23.460938 99.300781 C 23.675781 97.84375 23.929688 96.394531 24.214844 94.953125 C 24.503906 93.507812 24.824219 92.070312 25.183594 90.644531 C 25.542969 89.214844 25.933594 87.796875 26.359375 86.386719 C 26.789062 84.980469 27.25 83.582031 27.746094 82.195312 C 28.242188 80.808594 28.773438 79.4375 29.335938 78.078125 C 29.898438 76.714844 30.496094 75.371094 31.125 74.039062 C 31.753906 72.710938 32.414062 71.394531 33.109375 70.097656 C 33.804688 68.796875 34.527344 67.519531 35.285156 66.253906 C 36.042969 64.992188 36.828125 63.75 37.648438 62.523438 C 38.464844 61.300781 39.3125 60.097656 40.191406 58.914062 C 41.066406 57.734375 41.972656 56.574219 42.90625 55.433594 C 43.839844 54.296875 44.800781 53.183594 45.789062 52.09375 C 46.777344 51 47.792969 49.933594 48.835938 48.894531 C 49.875 47.851562 50.941406 46.839844 52.03125 45.851562 C 53.121094 44.863281 54.238281 43.898438 55.375 42.964844 C 56.511719 42.03125 57.671875 41.125 58.855469 40.25 C 60.039062 39.371094 61.242188 38.527344 62.464844 37.707031 C 63.6875 36.890625 64.933594 36.101562 66.195312 35.34375 C 67.457031 34.589844 68.738281 33.863281 70.035156 33.167969 C 71.335938 32.476562 72.648438 31.8125 73.980469 31.183594 C 75.3125 30.554688 76.65625 29.957031 78.015625 29.394531 C 79.375 28.832031 80.75 28.300781 82.136719 27.804688 C 83.523438 27.308594 84.917969 26.847656 86.328125 26.421875 C 87.738281 25.992188 89.15625 25.601562 90.582031 25.242188 C 92.011719 24.886719 93.449219 24.5625 94.890625 24.277344 C 96.335938 23.988281 97.785156 23.738281 99.242188 23.523438 C 100.699219 23.304688 102.15625 23.125 103.625 22.980469 C 105.089844 22.835938 106.554688 22.730469 108.027344 22.65625 C 109.496094 22.585938 110.96875 22.546875 112.441406 22.546875 C 113.914062 22.546875 115.382812 22.585938 116.855469 22.65625 C 118.324219 22.730469 119.792969 22.835938 121.257812 22.980469 C 122.722656 23.125 124.183594 23.304688 125.640625 23.523438 C 127.09375 23.738281 128.542969 23.988281 129.988281 24.277344 C 131.433594 24.5625 132.867188 24.886719 134.296875 25.242188 C 135.722656 25.601562 137.144531 25.992188 138.550781 26.421875 C 139.960938 26.847656 141.359375 27.308594 142.742188 27.804688 C 144.128906 28.300781 145.503906 28.832031 146.863281 29.394531 C 148.222656 29.957031 149.570312 30.554688 150.898438 31.183594 C 152.230469 31.8125 153.542969 32.476562 154.84375 33.167969 C 156.140625 33.863281 157.421875 34.589844 158.683594 35.34375 C 159.945312 36.101562 161.191406 36.890625 162.414062 37.707031 C 163.636719 38.527344 164.84375 39.371094 166.023438 40.25 C 167.207031 41.125 168.367188 42.03125 169.503906 42.964844 C 170.644531 43.898438 171.757812 44.863281 172.847656 45.851562 C 173.9375 46.839844 175.003906 47.851562 176.046875 48.894531 C 177.085938 49.933594 178.101562 51 179.089844 52.09375 C 180.078125 53.183594 181.039062 54.296875 181.972656 55.433594 C 182.90625 56.574219 183.8125 57.734375 184.691406 58.914062 C 185.566406 60.097656 186.414062 61.300781 187.230469 62.523438 C 188.050781 63.75 188.835938 64.992188 189.59375 66.253906 C 190.351562 67.519531 191.078125 68.796875 191.769531 70.097656 C 192.464844 71.394531 193.125 72.710938 193.753906 74.039062 C 194.386719 75.371094 194.980469 76.714844 195.542969 78.078125 C 196.109375 79.4375 196.636719 80.808594 197.132812 82.195312 C 197.628906 83.582031 198.089844 84.980469 198.519531 86.386719 C 198.945312 87.796875 199.339844 89.214844 199.695312 90.644531 C 200.054688 92.070312 200.375 93.507812 200.664062 94.953125 C 200.949219 96.394531 201.203125 97.84375 201.417969 99.300781 C 201.632812 100.757812 201.816406 102.21875 201.957031 103.683594 C 202.101562 105.148438 202.210938 106.617188 202.285156 108.085938 C 202.355469 109.554688 202.390625 111.027344 202.390625 112.5 C 202.390625 113.972656 202.351562 115.441406 202.277344 116.914062 C 202.203125 118.382812 202.09375 119.847656 201.949219 121.3125 C 201.804688 122.777344 201.621094 124.238281 201.40625 125.695312 C 201.1875 127.148438 200.933594 128.597656 200.648438 130.042969 C 200.359375 131.484375 200.035156 132.921875 199.675781 134.347656 C 199.316406 135.773438 198.925781 137.191406 198.496094 138.601562 C 198.066406 140.007812 197.605469 141.40625 197.109375 142.789062 C 196.613281 144.175781 196.082031 145.546875 195.519531 146.90625 C 194.953125 148.265625 194.355469 149.613281 193.726562 150.941406 C 193.097656 152.273438 192.433594 153.585938 191.742188 154.882812 C 191.046875 156.179688 190.320312 157.460938 189.5625 158.722656 C 188.804688 159.984375 188.019531 161.226562 187.199219 162.449219 C 186.382812 163.675781 185.535156 164.875 184.660156 166.058594 C 183.78125 167.242188 182.875 168.398438 181.941406 169.539062 C 181.007812 170.675781 180.046875 171.789062 179.058594 172.878906 C 178.070312 173.96875 177.054688 175.035156 176.015625 176.074219 C 174.976562 177.117188 173.910156 178.132812 172.820312 179.121094 C 171.730469 180.109375 170.613281 181.070312 169.476562 182.003906 C 168.339844 182.9375 167.179688 183.84375 166 184.71875 C 164.816406 185.59375 163.613281 186.441406 162.390625 187.261719 C 161.167969 188.078125 159.925781 188.867188 158.664062 189.625 C 157.398438 190.378906 156.121094 191.105469 154.824219 191.800781 C 153.523438 192.496094 152.210938 193.15625 150.882812 193.785156 C 149.550781 194.417969 148.207031 195.011719 146.847656 195.578125 C 145.488281 196.140625 144.117188 196.671875 142.730469 197.167969 C 141.34375 197.664062 139.949219 198.128906 138.539062 198.554688 C 137.132812 198.984375 135.714844 199.378906 134.289062 199.734375 C 132.859375 200.09375 131.425781 200.417969 129.980469 200.707031 C 128.539062 200.996094 127.089844 201.246094 125.632812 201.464844 C 124.179688 201.683594 122.71875 201.863281 121.253906 202.007812 C 119.789062 202.15625 118.320312 202.265625 116.851562 202.339844 C 115.382812 202.414062 113.910156 202.449219 112.441406 202.453125 Z M 112.441406 28.542969 C 111.066406 28.542969 109.691406 28.578125 108.320312 28.644531 C 106.949219 28.714844 105.578125 28.8125 104.210938 28.949219 C 102.84375 29.082031 101.480469 29.25 100.121094 29.453125 C 98.761719 29.65625 97.410156 29.890625 96.0625 30.15625 C 94.714844 30.425781 93.375 30.726562 92.039062 31.0625 C 90.707031 31.394531 89.382812 31.761719 88.070312 32.160156 C 86.753906 32.558594 85.449219 32.988281 84.15625 33.453125 C 82.863281 33.914062 81.582031 34.410156 80.3125 34.933594 C 79.042969 35.460938 77.785156 36.019531 76.542969 36.605469 C 75.300781 37.191406 74.074219 37.808594 72.863281 38.457031 C 71.652344 39.105469 70.457031 39.78125 69.277344 40.488281 C 68.101562 41.195312 66.9375 41.929688 65.796875 42.695312 C 64.65625 43.457031 63.53125 44.25 62.429688 45.066406 C 61.324219 45.886719 60.242188 46.730469 59.179688 47.601562 C 58.117188 48.472656 57.078125 49.371094 56.058594 50.292969 C 55.042969 51.214844 54.046875 52.164062 53.074219 53.132812 C 52.101562 54.105469 51.15625 55.101562 50.234375 56.117188 C 49.3125 57.136719 48.414062 58.175781 47.542969 59.238281 C 46.671875 60.300781 45.824219 61.382812 45.007812 62.488281 C 44.1875 63.589844 43.398438 64.714844 42.632812 65.855469 C 41.871094 67 41.136719 68.160156 40.429688 69.339844 C 39.722656 70.515625 39.046875 71.710938 38.398438 72.921875 C 37.75 74.136719 37.132812 75.363281 36.546875 76.605469 C 35.957031 77.847656 35.402344 79.101562 34.875 80.371094 C 34.351562 81.640625 33.855469 82.921875 33.390625 84.214844 C 32.929688 85.511719 32.5 86.8125 32.101562 88.128906 C 31.699219 89.445312 31.335938 90.769531 31 92.101562 C 30.667969 93.433594 30.367188 94.773438 30.097656 96.121094 C 29.828125 97.46875 29.59375 98.820312 29.394531 100.179688 C 29.191406 101.539062 29.023438 102.902344 28.890625 104.269531 C 28.753906 105.636719 28.652344 107.007812 28.585938 108.378906 C 28.519531 109.753906 28.484375 111.125 28.484375 112.5 C 28.484375 113.875 28.519531 115.246094 28.585938 116.621094 C 28.652344 117.992188 28.753906 119.363281 28.890625 120.730469 C 29.023438 122.097656 29.191406 123.460938 29.394531 124.820312 C 29.59375 126.179688 29.828125 127.53125 30.097656 128.878906 C 30.367188 130.226562 30.667969 131.566406 31 132.898438 C 31.335938 134.230469 31.699219 135.554688 32.101562 136.871094 C 32.5 138.1875 32.929688 139.488281 33.390625 140.785156 C 33.855469 142.078125 34.351562 143.359375 34.875 144.628906 C 35.402344 145.898438 35.957031 147.152344 36.546875 148.394531 C 37.132812 149.636719 37.75 150.863281 38.398438 152.078125 C 39.046875 153.289062 39.722656 154.484375 40.429688 155.660156 C 41.136719 156.839844 41.871094 158 42.632812 159.144531 C 43.398438 160.285156 44.1875 161.410156 45.007812 162.511719 C 45.824219 163.617188 46.671875 164.699219 47.542969 165.761719 C 48.414062 166.824219 49.3125 167.863281 50.234375 168.882812 C 51.15625 169.898438 52.101562 170.894531 53.074219 171.867188 C 54.046875 172.835938 55.042969 173.785156 56.058594 174.707031 C 57.078125 175.628906 58.117188 176.527344 59.179688 177.398438 C 60.242188 178.269531 61.324219 179.113281 62.429688 179.933594 C 63.53125 180.75 64.65625 181.542969 65.796875 182.304688 C 66.9375 183.070312 68.101562 183.804688 69.277344 184.511719 C 70.457031 185.21875 71.652344 185.894531 72.863281 186.542969 C 74.074219 187.191406 75.300781 187.808594 76.542969 188.394531 C 77.785156 188.980469 79.042969 189.539062 80.3125 190.066406 C 81.582031 190.589844 82.863281 191.085938 84.15625 191.546875 C 85.449219 192.011719 86.753906 192.441406 88.070312 192.839844 C 89.382812 193.238281 90.707031 193.605469 92.039062 193.9375 C 93.375 194.273438 94.714844 194.574219 96.0625 194.84375 C 97.410156 195.109375 98.761719 195.34375 100.121094 195.546875 C 101.480469 195.75 102.84375 195.917969 104.210938 196.050781 C 105.578125 196.1875 106.949219 196.285156 108.320312 196.355469 C 109.691406 196.421875 111.066406 196.457031 112.441406 196.457031 C 113.8125 196.457031 115.1875 196.421875 116.558594 196.355469 C 117.933594 196.285156 119.300781 196.1875 120.667969 196.050781 C 122.035156 195.917969 123.398438 195.75 124.757812 195.546875 C 126.117188 195.34375 127.472656 195.109375 128.820312 194.84375 C 130.167969 194.574219 131.507812 194.273438 132.839844 193.9375 C 134.171875 193.605469 135.496094 193.238281 136.8125 192.839844 C 138.125 192.441406 139.429688 192.011719 140.722656 191.546875 C 142.015625 191.085938 143.300781 190.589844 144.566406 190.066406 C 145.835938 189.539062 147.09375 188.980469 148.335938 188.394531 C 149.578125 187.808594 150.804688 187.191406 152.015625 186.542969 C 153.226562 185.894531 154.421875 185.21875 155.601562 184.511719 C 156.78125 183.804688 157.941406 183.070312 159.082031 182.304688 C 160.226562 181.542969 161.347656 180.75 162.453125 179.933594 C 163.554688 179.113281 164.636719 178.269531 165.699219 177.398438 C 166.761719 176.527344 167.804688 175.628906 168.820312 174.707031 C 169.839844 173.785156 170.832031 172.835938 171.804688 171.867188 C 172.777344 170.894531 173.722656 169.898438 174.648438 168.882812 C 175.570312 167.863281 176.464844 166.824219 177.339844 165.761719 C 178.210938 164.699219 179.054688 163.617188 179.875 162.511719 C 180.691406 161.410156 181.484375 160.285156 182.246094 159.144531 C 183.007812 158 183.746094 156.839844 184.449219 155.660156 C 185.15625 154.484375 185.835938 153.289062 186.480469 152.078125 C 187.128906 150.863281 187.746094 149.636719 188.335938 148.394531 C 188.921875 147.152344 189.480469 145.898438 190.003906 144.628906 C 190.53125 143.359375 191.023438 142.078125 191.488281 140.785156 C 191.949219 139.488281 192.382812 138.1875 192.78125 136.871094 C 193.179688 135.554688 193.546875 134.230469 193.878906 132.898438 C 194.214844 131.566406 194.515625 130.226562 194.78125 128.878906 C 195.050781 127.53125 195.285156 126.179688 195.488281 124.820312 C 195.6875 123.460938 195.855469 122.097656 195.992188 120.730469 C 196.125 119.363281 196.226562 117.992188 196.292969 116.621094 C 196.363281 115.246094 196.394531 113.875 196.394531 112.5 C 196.394531 111.125 196.359375 109.753906 196.289062 108.382812 C 196.21875 107.011719 196.117188 105.640625 195.980469 104.273438 C 195.847656 102.90625 195.675781 101.542969 195.472656 100.1875 C 195.269531 98.828125 195.035156 97.476562 194.765625 96.128906 C 194.496094 94.78125 194.195312 93.441406 193.859375 92.109375 C 193.527344 90.777344 193.160156 89.453125 192.757812 88.140625 C 192.359375 86.824219 191.925781 85.523438 191.464844 84.230469 C 191 82.9375 190.503906 81.65625 189.980469 80.386719 C 189.453125 79.117188 188.894531 77.863281 188.308594 76.621094 C 187.71875 75.378906 187.101562 74.152344 186.453125 72.941406 C 185.804688 71.730469 185.128906 70.539062 184.421875 69.359375 C 183.714844 68.179688 182.980469 67.023438 182.214844 65.878906 C 181.453125 64.738281 180.664062 63.617188 179.84375 62.511719 C 179.027344 61.410156 178.179688 60.328125 177.308594 59.265625 C 176.4375 58.203125 175.539062 57.164062 174.617188 56.144531 C 173.695312 55.128906 172.75 54.132812 171.777344 53.164062 C 170.804688 52.191406 169.8125 51.246094 168.792969 50.320312 C 167.777344 49.398438 166.738281 48.503906 165.675781 47.632812 C 164.613281 46.757812 163.53125 45.914062 162.425781 45.097656 C 161.324219 44.277344 160.203125 43.488281 159.058594 42.722656 C 157.917969 41.960938 156.757812 41.226562 155.582031 40.519531 C 154.402344 39.8125 153.207031 39.132812 151.996094 38.488281 C 150.785156 37.839844 149.558594 37.21875 148.320312 36.632812 C 147.078125 36.042969 145.820312 35.488281 144.554688 34.960938 C 143.285156 34.433594 142.003906 33.941406 140.710938 33.476562 C 139.417969 33.011719 138.113281 32.582031 136.800781 32.179688 C 135.484375 31.78125 134.164062 31.414062 132.832031 31.078125 C 131.5 30.746094 130.160156 30.441406 128.8125 30.175781 C 127.464844 29.90625 126.113281 29.667969 124.753906 29.464844 C 123.394531 29.261719 122.03125 29.09375 120.667969 28.957031 C 119.300781 28.820312 117.929688 28.71875 116.558594 28.652344 C 115.1875 28.582031 113.8125 28.546875 112.441406 28.542969 Z M 112.441406 28.542969 " fill-opacity="1" fill-rule="nonzero"/></g><path fill="#ffffff" d="M 112.441406 190.457031 C 111.164062 190.457031 109.890625 190.425781 108.613281 190.363281 C 107.339844 190.300781 106.070312 190.207031 104.796875 190.082031 C 103.527344 189.957031 102.261719 189.800781 101 189.613281 C 99.738281 189.425781 98.480469 189.210938 97.230469 188.960938 C 95.980469 188.710938 94.734375 188.433594 93.496094 188.121094 C 92.261719 187.8125 91.03125 187.472656 89.808594 187.101562 C 88.589844 186.730469 87.378906 186.332031 86.175781 185.902344 C 84.976562 185.472656 83.785156 185.011719 82.605469 184.523438 C 81.429688 184.035156 80.261719 183.519531 79.109375 182.972656 C 77.957031 182.429688 76.816406 181.855469 75.691406 181.253906 C 74.566406 180.652344 73.457031 180.023438 72.363281 179.367188 C 71.265625 178.710938 70.191406 178.027344 69.128906 177.320312 C 68.066406 176.609375 67.023438 175.875 66 175.117188 C 64.976562 174.355469 63.96875 173.570312 62.984375 172.761719 C 61.996094 171.953125 61.03125 171.121094 60.085938 170.261719 C 59.140625 169.40625 58.21875 168.527344 57.316406 167.625 C 56.414062 166.722656 55.535156 165.800781 54.675781 164.855469 C 53.820312 163.910156 52.988281 162.941406 52.175781 161.957031 C 51.367188 160.96875 50.582031 159.964844 49.824219 158.941406 C 49.0625 157.914062 48.328125 156.871094 47.621094 155.8125 C 46.910156 154.75 46.230469 153.671875 45.574219 152.578125 C 44.917969 151.484375 44.289062 150.375 43.6875 149.25 C 43.085938 148.125 42.511719 146.984375 41.964844 145.832031 C 41.421875 144.679688 40.902344 143.511719 40.414062 142.332031 C 39.925781 141.15625 39.46875 139.964844 39.039062 138.761719 C 38.609375 137.5625 38.207031 136.351562 37.839844 135.128906 C 37.46875 133.910156 37.128906 132.679688 36.816406 131.441406 C 36.507812 130.203125 36.226562 128.960938 35.980469 127.707031 C 35.730469 126.457031 35.511719 125.199219 35.324219 123.9375 C 35.136719 122.675781 34.980469 121.410156 34.855469 120.140625 C 34.730469 118.871094 34.636719 117.597656 34.574219 116.324219 C 34.511719 115.050781 34.480469 113.777344 34.480469 112.5 C 34.480469 111.222656 34.511719 109.949219 34.574219 108.675781 C 34.636719 107.402344 34.730469 106.128906 34.855469 104.859375 C 34.980469 103.589844 35.136719 102.324219 35.324219 101.0625 C 35.511719 99.800781 35.730469 98.542969 35.980469 97.292969 C 36.226562 96.039062 36.507812 94.796875 36.816406 93.558594 C 37.128906 92.320312 37.46875 91.089844 37.839844 89.871094 C 38.207031 88.648438 38.609375 87.4375 39.039062 86.238281 C 39.46875 85.035156 39.925781 83.84375 40.414062 82.667969 C 40.902344 81.488281 41.421875 80.320312 41.964844 79.167969 C 42.511719 78.015625 43.085938 76.875 43.6875 75.75 C 44.289062 74.625 44.917969 73.515625 45.574219 72.421875 C 46.230469 71.328125 46.910156 70.25 47.621094 69.1875 C 48.328125 68.128906 49.0625 67.085938 49.824219 66.058594 C 50.582031 65.035156 51.367188 64.03125 52.175781 63.042969 C 52.988281 62.058594 53.820312 61.089844 54.675781 60.144531 C 55.535156 59.199219 56.414062 58.277344 57.316406 57.375 C 58.21875 56.472656 59.140625 55.59375 60.085938 54.738281 C 61.03125 53.878906 61.996094 53.046875 62.984375 52.238281 C 63.96875 51.429688 64.976562 50.644531 66 49.882812 C 67.023438 49.125 68.066406 48.390625 69.128906 47.679688 C 70.191406 46.972656 71.265625 46.289062 72.363281 45.632812 C 73.457031 44.976562 74.566406 44.347656 75.691406 43.746094 C 76.816406 43.144531 77.957031 42.570312 79.109375 42.027344 C 80.261719 41.480469 81.429688 40.964844 82.605469 40.476562 C 83.785156 39.988281 84.976562 39.527344 86.175781 39.097656 C 87.378906 38.667969 88.589844 38.269531 89.808594 37.898438 C 91.03125 37.527344 92.261719 37.1875 93.496094 36.878906 C 94.734375 36.566406 95.980469 36.289062 97.230469 36.039062 C 98.480469 35.789062 99.738281 35.574219 101 35.386719 C 102.261719 35.199219 103.527344 35.042969 104.796875 34.917969 C 106.070312 34.792969 107.339844 34.699219 108.613281 34.636719 C 109.890625 34.574219 111.164062 34.542969 112.441406 34.542969 C 113.714844 34.542969 114.992188 34.574219 116.265625 34.636719 C 117.539062 34.699219 118.8125 34.792969 120.082031 34.917969 C 121.351562 35.042969 122.617188 35.199219 123.878906 35.386719 C 125.140625 35.574219 126.398438 35.789062 127.648438 36.039062 C 128.898438 36.289062 130.144531 36.566406 131.382812 36.878906 C 132.621094 37.1875 133.847656 37.527344 135.070312 37.898438 C 136.292969 38.269531 137.503906 38.667969 138.703125 39.097656 C 139.90625 39.527344 141.09375 39.988281 142.273438 40.476562 C 143.453125 40.964844 144.617188 41.480469 145.773438 42.027344 C 146.925781 42.570312 148.0625 43.144531 149.1875 43.746094 C 150.316406 44.347656 151.425781 44.976562 152.519531 45.632812 C 153.613281 46.289062 154.691406 46.972656 155.75 47.679688 C 156.8125 48.390625 157.855469 49.125 158.878906 49.882812 C 159.90625 50.644531 160.910156 51.429688 161.894531 52.238281 C 162.882812 53.046875 163.847656 53.878906 164.792969 54.738281 C 165.738281 55.59375 166.664062 56.472656 167.566406 57.375 C 168.46875 58.277344 169.347656 59.199219 170.203125 60.144531 C 171.058594 61.089844 171.894531 62.058594 172.703125 63.042969 C 173.511719 64.03125 174.296875 65.035156 175.058594 66.058594 C 175.816406 67.085938 176.550781 68.128906 177.261719 69.1875 C 177.96875 70.25 178.652344 71.328125 179.308594 72.421875 C 179.964844 73.515625 180.589844 74.625 181.191406 75.75 C 181.792969 76.875 182.367188 78.015625 182.914062 79.167969 C 183.460938 80.320312 183.976562 81.488281 184.464844 82.667969 C 184.953125 83.84375 185.410156 85.035156 185.839844 86.238281 C 186.269531 87.4375 186.671875 88.648438 187.042969 89.871094 C 187.410156 91.089844 187.753906 92.320312 188.0625 93.558594 C 188.371094 94.796875 188.652344 96.039062 188.902344 97.292969 C 189.148438 98.542969 189.367188 99.800781 189.554688 101.0625 C 189.742188 102.324219 189.898438 103.589844 190.023438 104.859375 C 190.148438 106.128906 190.242188 107.402344 190.304688 108.675781 C 190.367188 109.949219 190.398438 111.222656 190.398438 112.5 C 190.398438 113.777344 190.363281 115.050781 190.300781 116.324219 C 190.234375 117.597656 190.140625 118.871094 190.015625 120.136719 C 189.886719 121.40625 189.730469 122.671875 189.542969 123.933594 C 189.355469 125.195312 189.136719 126.453125 188.886719 127.703125 C 188.636719 128.953125 188.355469 130.199219 188.042969 131.433594 C 187.734375 132.671875 187.390625 133.898438 187.019531 135.121094 C 186.648438 136.339844 186.25 137.550781 185.820312 138.75 C 185.386719 139.953125 184.929688 141.140625 184.441406 142.320312 C 183.953125 143.496094 183.433594 144.664062 182.886719 145.816406 C 182.34375 146.96875 181.769531 148.105469 181.167969 149.230469 C 180.566406 150.355469 179.9375 151.464844 179.28125 152.558594 C 178.625 153.652344 177.941406 154.730469 177.230469 155.789062 C 176.523438 156.851562 175.789062 157.894531 175.027344 158.917969 C 174.269531 159.941406 173.484375 160.945312 172.675781 161.933594 C 171.867188 162.917969 171.03125 163.882812 170.175781 164.828125 C 169.320312 165.773438 168.441406 166.695312 167.539062 167.597656 C 166.636719 168.5 165.714844 169.378906 164.769531 170.238281 C 163.824219 171.09375 162.859375 171.925781 161.871094 172.734375 C 160.886719 173.542969 159.882812 174.328125 158.855469 175.089844 C 157.832031 175.847656 156.789062 176.582031 155.730469 177.292969 C 154.667969 178 153.59375 178.683594 152.5 179.339844 C 151.40625 179.996094 150.296875 180.625 149.171875 181.226562 C 148.046875 181.828125 146.910156 182.402344 145.753906 182.949219 C 144.601562 183.492188 143.4375 184.011719 142.257812 184.5 C 141.082031 184.988281 139.890625 185.449219 138.691406 185.878906 C 137.492188 186.308594 136.28125 186.710938 135.058594 187.082031 C 133.839844 187.453125 132.609375 187.792969 131.375 188.105469 C 130.136719 188.414062 128.894531 188.695312 127.644531 188.945312 C 126.390625 189.195312 125.136719 189.414062 123.875 189.601562 C 122.613281 189.792969 121.347656 189.949219 120.078125 190.074219 C 118.808594 190.203125 117.539062 190.296875 116.265625 190.359375 C 114.988281 190.425781 113.714844 190.457031 112.441406 190.457031 Z M 112.441406 40.539062 C 111.261719 40.539062 110.085938 40.566406 108.910156 40.625 C 107.734375 40.683594 106.558594 40.769531 105.386719 40.886719 C 104.214844 41 103.046875 41.144531 101.882812 41.316406 C 100.714844 41.488281 99.554688 41.691406 98.402344 41.921875 C 97.246094 42.152344 96.097656 42.410156 94.953125 42.695312 C 93.8125 42.980469 92.675781 43.296875 91.550781 43.636719 C 90.421875 43.980469 89.304688 44.347656 88.195312 44.746094 C 87.089844 45.140625 85.988281 45.566406 84.902344 46.015625 C 83.8125 46.46875 82.738281 46.945312 81.671875 47.449219 C 80.609375 47.949219 79.554688 48.480469 78.515625 49.035156 C 77.480469 49.589844 76.453125 50.171875 75.445312 50.777344 C 74.433594 51.382812 73.441406 52.011719 72.460938 52.667969 C 71.480469 53.320312 70.519531 54 69.574219 54.699219 C 68.625 55.402344 67.699219 56.125 66.789062 56.871094 C 65.878906 57.621094 64.984375 58.390625 64.113281 59.179688 C 63.242188 59.972656 62.386719 60.78125 61.554688 61.617188 C 60.722656 62.449219 59.910156 63.300781 59.121094 64.171875 C 58.328125 65.046875 57.558594 65.9375 56.8125 66.847656 C 56.066406 67.757812 55.339844 68.6875 54.640625 69.632812 C 53.9375 70.578125 53.261719 71.542969 52.605469 72.519531 C 51.953125 73.5 51.320312 74.496094 50.714844 75.503906 C 50.109375 76.515625 49.53125 77.539062 48.976562 78.578125 C 48.421875 79.617188 47.890625 80.667969 47.386719 81.734375 C 46.882812 82.796875 46.40625 83.875 45.957031 84.960938 C 45.503906 86.050781 45.082031 87.148438 44.683594 88.257812 C 44.289062 89.367188 43.917969 90.484375 43.578125 91.609375 C 43.234375 92.738281 42.921875 93.871094 42.636719 95.015625 C 42.347656 96.15625 42.089844 97.304688 41.859375 98.460938 C 41.632812 99.617188 41.429688 100.777344 41.257812 101.941406 C 41.085938 103.105469 40.941406 104.273438 40.824219 105.445312 C 40.710938 106.617188 40.621094 107.792969 40.566406 108.96875 C 40.507812 110.144531 40.476562 111.324219 40.476562 112.5 C 40.476562 113.675781 40.507812 114.855469 40.566406 116.03125 C 40.621094 117.207031 40.710938 118.382812 40.824219 119.554688 C 40.941406 120.726562 41.085938 121.894531 41.257812 123.058594 C 41.429688 124.222656 41.632812 125.382812 41.859375 126.539062 C 42.089844 127.695312 42.347656 128.84375 42.636719 129.984375 C 42.921875 131.128906 43.234375 132.261719 43.578125 133.390625 C 43.917969 134.515625 44.289062 135.632812 44.683594 136.742188 C 45.082031 137.851562 45.503906 138.949219 45.957031 140.039062 C 46.40625 141.125 46.882812 142.203125 47.386719 143.265625 C 47.890625 144.332031 48.421875 145.382812 48.976562 146.421875 C 49.53125 147.460938 50.109375 148.484375 50.714844 149.496094 C 51.320312 150.503906 51.953125 151.5 52.605469 152.480469 C 53.261719 153.457031 53.9375 154.421875 54.640625 155.367188 C 55.339844 156.3125 56.066406 157.242188 56.8125 158.152344 C 57.558594 159.0625 58.328125 159.953125 59.121094 160.828125 C 59.910156 161.699219 60.722656 162.550781 61.554688 163.382812 C 62.386719 164.21875 63.242188 165.027344 64.113281 165.820312 C 64.984375 166.609375 65.878906 167.378906 66.789062 168.128906 C 67.699219 168.875 68.625 169.597656 69.574219 170.300781 C 70.519531 171 71.480469 171.679688 72.460938 172.332031 C 73.441406 172.988281 74.433594 173.617188 75.445312 174.222656 C 76.453125 174.828125 77.480469 175.410156 78.515625 175.964844 C 79.554688 176.519531 80.609375 177.050781 81.671875 177.550781 C 82.738281 178.054688 83.8125 178.53125 84.902344 178.984375 C 85.988281 179.433594 87.089844 179.859375 88.195312 180.253906 C 89.304688 180.652344 90.421875 181.019531 91.550781 181.363281 C 92.675781 181.703125 93.8125 182.019531 94.953125 182.304688 C 96.097656 182.589844 97.246094 182.847656 98.402344 183.078125 C 99.554688 183.308594 100.714844 183.511719 101.882812 183.683594 C 103.046875 183.855469 104.214844 184 105.386719 184.113281 C 106.558594 184.230469 107.734375 184.316406 108.910156 184.375 C 110.085938 184.433594 111.261719 184.460938 112.441406 184.460938 C 113.617188 184.460938 114.792969 184.433594 115.972656 184.375 C 117.148438 184.316406 118.320312 184.230469 119.492188 184.113281 C 120.664062 184 121.832031 183.855469 123 183.683594 C 124.164062 183.511719 125.324219 183.308594 126.480469 183.078125 C 127.632812 182.847656 128.78125 182.589844 129.925781 182.304688 C 131.066406 182.019531 132.203125 181.703125 133.328125 181.363281 C 134.457031 181.019531 135.574219 180.652344 136.683594 180.253906 C 137.792969 179.859375 138.890625 179.433594 139.976562 178.984375 C 141.066406 178.53125 142.144531 178.054688 143.207031 177.550781 C 144.273438 177.050781 145.324219 176.519531 146.363281 175.964844 C 147.402344 175.410156 148.425781 174.828125 149.4375 174.222656 C 150.445312 173.617188 151.441406 172.988281 152.417969 172.332031 C 153.398438 171.679688 154.363281 171 155.308594 170.300781 C 156.253906 169.597656 157.179688 168.875 158.09375 168.128906 C 159.003906 167.378906 159.894531 166.609375 160.765625 165.820312 C 161.640625 165.027344 162.492188 164.21875 163.324219 163.382812 C 164.15625 162.550781 164.96875 161.699219 165.761719 160.828125 C 166.550781 159.953125 167.320312 159.0625 168.066406 158.152344 C 168.8125 157.242188 169.539062 156.3125 170.238281 155.367188 C 170.941406 154.421875 171.621094 153.457031 172.273438 152.480469 C 172.929688 151.5 173.558594 150.503906 174.164062 149.496094 C 174.769531 148.484375 175.347656 147.460938 175.90625 146.421875 C 176.460938 145.382812 176.988281 144.332031 177.492188 143.265625 C 177.996094 142.203125 178.472656 141.125 178.921875 140.039062 C 179.375 138.949219 179.796875 137.851562 180.195312 136.742188 C 180.589844 135.632812 180.960938 134.515625 181.304688 133.390625 C 181.644531 132.261719 181.957031 131.128906 182.246094 129.984375 C 182.53125 128.84375 182.789062 127.695312 183.019531 126.539062 C 183.25 125.382812 183.449219 124.222656 183.621094 123.058594 C 183.796875 121.894531 183.941406 120.726562 184.054688 119.554688 C 184.171875 118.382812 184.257812 117.207031 184.316406 116.03125 C 184.371094 114.855469 184.402344 113.675781 184.402344 112.5 C 184.398438 111.324219 184.371094 110.144531 184.3125 108.96875 C 184.25 107.792969 184.164062 106.621094 184.046875 105.449219 C 183.929688 104.277344 183.785156 103.109375 183.613281 101.945312 C 183.4375 100.78125 183.234375 99.621094 183.003906 98.464844 C 182.773438 97.3125 182.515625 96.164062 182.226562 95.023438 C 181.941406 93.878906 181.625 92.746094 181.285156 91.621094 C 180.941406 90.492188 180.570312 89.375 180.175781 88.269531 C 179.777344 87.160156 179.351562 86.0625 178.902344 84.972656 C 178.449219 83.886719 177.972656 82.8125 177.46875 81.746094 C 176.964844 80.683594 176.433594 79.632812 175.878906 78.59375 C 175.324219 77.554688 174.742188 76.53125 174.136719 75.523438 C 173.53125 74.511719 172.902344 73.519531 172.25 72.539062 C 171.59375 71.5625 170.914062 70.597656 170.214844 69.652344 C 169.511719 68.707031 168.789062 67.78125 168.042969 66.871094 C 167.292969 65.960938 166.527344 65.070312 165.734375 64.195312 C 164.945312 63.324219 164.132812 62.472656 163.300781 61.640625 C 162.46875 60.808594 161.613281 59.996094 160.742188 59.207031 C 159.871094 58.414062 158.980469 57.644531 158.070312 56.898438 C 157.160156 56.152344 156.230469 55.425781 155.285156 54.726562 C 154.339844 54.023438 153.378906 53.347656 152.398438 52.691406 C 151.421875 52.039062 150.425781 51.40625 149.417969 50.800781 C 148.40625 50.195312 147.382812 49.617188 146.347656 49.058594 C 145.308594 48.503906 144.257812 47.976562 143.191406 47.472656 C 142.128906 46.96875 141.054688 46.488281 139.964844 46.039062 C 138.878906 45.585938 137.78125 45.164062 136.671875 44.765625 C 135.5625 44.367188 134.445312 44 133.320312 43.65625 C 132.195312 43.3125 131.058594 43 129.917969 42.710938 C 128.777344 42.425781 127.628906 42.164062 126.472656 41.933594 C 125.320312 41.703125 124.160156 41.503906 122.996094 41.328125 C 121.832031 41.15625 120.664062 41.007812 119.492188 40.890625 C 118.320312 40.777344 117.144531 40.6875 115.96875 40.628906 C 114.792969 40.570312 113.617188 40.539062 112.441406 40.539062 Z M 112.441406 40.539062 " fill-opacity="1" fill-rule="nonzero"/><path fill="#ffffff" d="M 154.417969 118.496094 C 154.417969 112.242188 145.847656 107.28125 130.902344 104.894531 C 130.515625 104.847656 130.136719 104.871094 129.757812 104.96875 C 129.382812 105.066406 129.035156 105.234375 128.722656 105.46875 C 128.410156 105.699219 128.152344 105.984375 127.953125 106.316406 C 127.75 106.652344 127.617188 107.011719 127.558594 107.394531 C 127.496094 107.78125 127.507812 108.164062 127.597656 108.542969 C 127.683594 108.921875 127.839844 109.273438 128.0625 109.59375 C 128.289062 109.910156 128.5625 110.175781 128.890625 110.386719 C 129.21875 110.601562 129.574219 110.742188 129.957031 110.816406 C 143.769531 113.023438 148.421875 117.015625 148.421875 118.496094 C 148.421875 120.761719 140.40625 125.277344 124.433594 126.890625 L 124.433594 94.507812 L 139.425781 94.507812 C 140.214844 94.507812 140.992188 94.433594 141.765625 94.277344 C 142.539062 94.125 143.289062 93.898438 144.015625 93.597656 C 144.742188 93.296875 145.433594 92.925781 146.089844 92.488281 C 146.742188 92.050781 147.347656 91.554688 147.90625 90.996094 C 148.464844 90.441406 148.960938 89.835938 149.398438 89.179688 C 149.835938 88.523438 150.203125 87.832031 150.507812 87.105469 C 150.808594 86.378906 151.035156 85.628906 151.1875 84.855469 C 151.34375 84.082031 151.417969 83.304688 151.417969 82.515625 C 151.417969 81.726562 151.34375 80.949219 151.1875 80.175781 C 151.035156 79.402344 150.808594 78.652344 150.507812 77.925781 C 150.203125 77.199219 149.835938 76.507812 149.398438 75.851562 C 148.960938 75.199219 148.464844 74.59375 147.90625 74.035156 C 147.347656 73.476562 146.742188 72.980469 146.089844 72.542969 C 145.433594 72.105469 144.742188 71.738281 144.015625 71.433594 C 143.289062 71.132812 142.539062 70.90625 141.765625 70.753906 C 140.992188 70.597656 140.214844 70.523438 139.425781 70.523438 L 85.453125 70.523438 C 84.667969 70.523438 83.886719 70.597656 83.113281 70.753906 C 82.34375 70.90625 81.59375 71.132812 80.863281 71.433594 C 80.136719 71.738281 79.445312 72.105469 78.792969 72.542969 C 78.136719 72.980469 77.53125 73.476562 76.972656 74.035156 C 76.417969 74.59375 75.917969 75.199219 75.480469 75.851562 C 75.042969 76.507812 74.675781 77.199219 74.375 77.925781 C 74.074219 78.652344 73.84375 79.402344 73.691406 80.175781 C 73.539062 80.949219 73.460938 81.726562 73.460938 82.515625 C 73.460938 83.304688 73.539062 84.082031 73.691406 84.855469 C 73.84375 85.628906 74.074219 86.378906 74.375 87.105469 C 74.675781 87.832031 75.042969 88.523438 75.480469 89.179688 C 75.917969 89.835938 76.417969 90.441406 76.972656 90.996094 C 77.53125 91.554688 78.136719 92.050781 78.792969 92.488281 C 79.445312 92.925781 80.136719 93.296875 80.863281 93.597656 C 81.59375 93.898438 82.34375 94.125 83.113281 94.277344 C 83.886719 94.433594 84.667969 94.507812 85.453125 94.507812 L 100.445312 94.507812 L 100.445312 126.890625 C 84.472656 125.277344 76.460938 120.761719 76.460938 118.496094 C 76.460938 117.015625 81.109375 113.023438 94.921875 110.816406 C 95.304688 110.742188 95.660156 110.601562 95.988281 110.386719 C 96.316406 110.175781 96.59375 109.910156 96.816406 109.59375 C 97.039062 109.273438 97.195312 108.921875 97.285156 108.542969 C 97.371094 108.164062 97.382812 107.78125 97.324219 107.394531 C 97.261719 107.011719 97.128906 106.652344 96.929688 106.316406 C 96.726562 105.984375 96.46875 105.699219 96.15625 105.46875 C 95.84375 105.234375 95.5 105.066406 95.121094 104.96875 C 94.746094 104.871094 94.363281 104.847656 93.976562 104.894531 C 79.03125 107.28125 70.460938 112.242188 70.460938 118.496094 C 70.460938 127.042969 85.472656 131.480469 100.445312 132.917969 L 100.445312 154.476562 C 100.445312 155.265625 100.523438 156.046875 100.675781 156.816406 C 100.832031 157.589844 101.058594 158.339844 101.359375 159.066406 C 101.660156 159.792969 102.03125 160.484375 102.46875 161.140625 C 102.90625 161.796875 103.402344 162.402344 103.960938 162.957031 C 104.515625 163.515625 105.121094 164.011719 105.777344 164.449219 C 106.429688 164.886719 107.121094 165.257812 107.851562 165.558594 C 108.578125 165.859375 109.328125 166.085938 110.101562 166.242188 C 110.871094 166.394531 111.652344 166.472656 112.441406 166.472656 C 113.226562 166.472656 114.007812 166.394531 114.78125 166.242188 C 115.550781 166.085938 116.300781 165.859375 117.03125 165.558594 C 117.757812 165.257812 118.449219 164.886719 119.101562 164.449219 C 119.757812 164.011719 120.363281 163.515625 120.921875 162.957031 C 121.476562 162.402344 121.976562 161.796875 122.414062 161.140625 C 122.851562 160.484375 123.21875 159.792969 123.519531 159.066406 C 123.820312 158.339844 124.050781 157.589844 124.203125 156.816406 C 124.355469 156.046875 124.433594 155.265625 124.433594 154.476562 L 124.433594 132.917969 C 139.425781 131.480469 154.417969 127.042969 154.417969 118.496094 Z M 85.453125 88.511719 C 85.0625 88.511719 84.671875 88.472656 84.285156 88.398438 C 83.898438 88.320312 83.523438 88.207031 83.160156 88.054688 C 82.796875 87.90625 82.449219 87.722656 82.121094 87.503906 C 81.796875 87.285156 81.492188 87.035156 81.214844 86.757812 C 80.9375 86.476562 80.6875 86.175781 80.46875 85.847656 C 80.25 85.519531 80.066406 85.175781 79.914062 84.8125 C 79.761719 84.445312 79.648438 84.070312 79.574219 83.6875 C 79.496094 83.300781 79.457031 82.910156 79.457031 82.515625 C 79.457031 82.121094 79.496094 81.730469 79.574219 81.347656 C 79.648438 80.960938 79.761719 80.585938 79.914062 80.222656 C 80.066406 79.855469 80.25 79.511719 80.46875 79.183594 C 80.6875 78.855469 80.9375 78.554688 81.214844 78.277344 C 81.492188 77.996094 81.796875 77.75 82.121094 77.53125 C 82.449219 77.3125 82.796875 77.125 83.160156 76.976562 C 83.523438 76.824219 83.898438 76.710938 84.285156 76.632812 C 84.671875 76.558594 85.0625 76.519531 85.453125 76.519531 L 139.425781 76.519531 C 139.820312 76.519531 140.210938 76.558594 140.59375 76.632812 C 140.980469 76.710938 141.355469 76.824219 141.71875 76.976562 C 142.085938 77.125 142.429688 77.3125 142.757812 77.53125 C 143.085938 77.75 143.386719 77.996094 143.664062 78.277344 C 143.945312 78.554688 144.191406 78.855469 144.410156 79.183594 C 144.628906 79.511719 144.816406 79.855469 144.964844 80.222656 C 145.117188 80.585938 145.230469 80.960938 145.308594 81.347656 C 145.382812 81.730469 145.421875 82.121094 145.421875 82.515625 C 145.421875 82.910156 145.382812 83.300781 145.308594 83.6875 C 145.230469 84.070312 145.117188 84.445312 144.964844 84.8125 C 144.816406 85.175781 144.628906 85.519531 144.410156 85.847656 C 144.191406 86.175781 143.945312 86.476562 143.664062 86.757812 C 143.386719 87.035156 143.085938 87.285156 142.757812 87.503906 C 142.429688 87.722656 142.085938 87.90625 141.71875 88.054688 C 141.355469 88.207031 140.980469 88.320312 140.59375 88.398438 C 140.210938 88.472656 139.820312 88.511719 139.425781 88.511719 L 121.433594 88.511719 C 121.039062 88.511719 120.65625 88.589844 120.289062 88.742188 C 119.921875 88.894531 119.597656 89.109375 119.316406 89.390625 C 119.035156 89.671875 118.816406 89.996094 118.664062 90.363281 C 118.511719 90.730469 118.4375 91.113281 118.4375 91.511719 L 118.4375 127.269531 C 114.4375 127.472656 110.441406 127.472656 106.441406 127.269531 L 106.441406 91.511719 C 106.441406 91.113281 106.367188 90.730469 106.214844 90.363281 C 106.0625 89.996094 105.847656 89.671875 105.566406 89.390625 C 105.285156 89.109375 104.960938 88.894531 104.59375 88.742188 C 104.226562 88.589844 103.84375 88.511719 103.445312 88.511719 Z M 112.441406 160.472656 C 112.046875 160.472656 111.65625 160.4375 111.269531 160.359375 C 110.882812 160.28125 110.507812 160.167969 110.144531 160.019531 C 109.78125 159.867188 109.4375 159.683594 109.109375 159.464844 C 108.78125 159.246094 108.476562 158.996094 108.199219 158.71875 C 107.921875 158.441406 107.671875 158.136719 107.453125 157.808594 C 107.234375 157.480469 107.050781 157.136719 106.898438 156.773438 C 106.75 156.410156 106.636719 156.035156 106.558594 155.648438 C 106.480469 155.261719 106.441406 154.871094 106.441406 154.476562 L 106.441406 133.328125 C 108.453125 133.421875 110.460938 133.488281 112.441406 133.488281 C 114.417969 133.488281 116.429688 133.421875 118.4375 133.328125 L 118.4375 154.476562 C 118.4375 154.871094 118.398438 155.261719 118.320312 155.648438 C 118.246094 156.035156 118.132812 156.410156 117.980469 156.773438 C 117.828125 157.136719 117.644531 157.480469 117.425781 157.808594 C 117.207031 158.136719 116.957031 158.441406 116.679688 158.71875 C 116.402344 158.996094 116.097656 159.246094 115.773438 159.464844 C 115.445312 159.683594 115.097656 159.867188 114.734375 160.019531 C 114.371094 160.167969 113.996094 160.28125 113.609375 160.359375 C 113.222656 160.4375 112.832031 160.472656 112.441406 160.472656 Z M 112.441406 160.472656 " fill-opacity="1" fill-rule="nonzero"/></svg>